<?xml version="1.0" encoding="UTF-8" standalone="no"?>
<!DOCTYPE svg PUBLIC "-//W3C//DTD SVG 1.1//EN" "http://www.w3.org/Graphics/SVG/1.1/DTD/svg11.dtd">
<svg class="logo" width="100%" height="100%" viewBox="0 0 1559 312" version="1.1" xmlns="http://www.w3.org/2000/svg" xmlns:xlink="http://www.w3.org/1999/xlink" xml:space="preserve" xmlns:serif="http://www.serif.com/" style="fill-rule:evenodd;clip-rule:evenodd;stroke-linejoin:round;stroke-miterlimit:2;">
    <g transform="matrix(1,0,0,1,-714.317,-156.558)">
        <g id="_3" serif:id="3" transform="matrix(1,0,0,1,253.687,-1437.54)">
            <g>
                <g transform="matrix(1.07973,0,0,1.06571,-82.457,-289.081)">
                    <g id="Layer3" class="square">
                        <rect x="1039.37" y="1767.97" width="135.827" height="137.5"/>
                    </g>
                </g>
                <g transform="matrix(1.07764,0,0,1.06453,67.2709,-122.961)">
                    <g class="square" id="Layer31" serif:id="Layer3">
                        <rect x="1039.37" y="1767.97" width="135.827" height="137.5"/>
                    </g>
                </g>
            </g>
            <g transform="matrix(1,0,0,1,-776.88,-236.296)">
                <g transform="matrix(416.667,0,0,416.667,1217.41,2142.18)">
                    <path d="M0.393,-0.747C0.424,-0.747 0.454,-0.741 0.482,-0.729C0.51,-0.716 0.535,-0.7 0.556,-0.679C0.577,-0.658 0.594,-0.633 0.606,-0.605C0.618,-0.576 0.624,-0.546 0.624,-0.514C0.624,-0.482 0.618,-0.452 0.606,-0.425C0.594,-0.397 0.578,-0.373 0.557,-0.352C0.536,-0.331 0.511,-0.314 0.483,-0.302C0.455,-0.29 0.425,-0.284 0.393,-0.284L0.166,-0.285L0.166,-0.001L0.049,-0.001L0.049,-0.589L0.166,-0.589L0.166,-0.401L0.393,-0.401C0.409,-0.401 0.423,-0.404 0.437,-0.41C0.451,-0.416 0.463,-0.424 0.474,-0.434C0.484,-0.444 0.492,-0.456 0.498,-0.47C0.504,-0.483 0.507,-0.498 0.507,-0.514C0.507,-0.53 0.504,-0.545 0.498,-0.559C0.491,-0.573 0.483,-0.586 0.472,-0.596C0.462,-0.606 0.45,-0.614 0.436,-0.621C0.422,-0.627 0.407,-0.63 0.392,-0.63L0.207,-0.631L0.207,-0.748L0.393,-0.747Z" style="fill-rule:nonzero;"/>
                </g>
                <g transform="matrix(416.667,0,0,416.667,1468.66,2142.18)">
                    <rect x="0.06" y="-0.748" width="0.117" height="0.747" style="fill-rule:nonzero;"/>
                </g>
                <g transform="matrix(416.667,0,0,416.667,1538.25,2143.18)">
                    <path d="M0.442,-0.318L0.629,-0.003L0.493,-0.003L0.339,-0.263L0.184,-0.003L0.048,-0.003L0.235,-0.318L0.442,-0.318ZM0.439,-0.433L0.238,-0.433L0.05,-0.75L0.185,-0.75L0.339,-0.492L0.492,-0.75L0.627,-0.75L0.439,-0.433Z" style="fill-rule:nonzero;"/>
                </g>
                <g id="a" transform="matrix(416.667,0,0,416.667,1807.5,2142.18)">
                    <path d="M0.409,-0.747L0.73,-0.001L0.602,-0.001L0.532,-0.162L0.376,-0.528L0.268,-0.279L0.148,-0.001L0.022,-0.001L0.344,-0.747L0.409,-0.747Z" style="fill-rule:nonzero;"/>
                </g>
                <g transform="matrix(1,0,0,1,771.88,236.296)">
                    <rect x="1421.03" y="1719.22" width="91.25" height="48.75" style="fill-rule:nonzero;"/>
                </g>
                <g transform="matrix(1,0,0,1,776.88,236.296)">
                    <rect x="1350.62" y="1768.38" width="48.75" height="137.5" style="fill-rule:nonzero;"/>
                </g>
                <g transform="matrix(1,0,0,1,776.88,236.296)">
                    <path d="M1350.62,1594.22L1558.53,1594.22L1558.53,1642.97L1399.37,1642.97L1399.37,1718.38L1350.62,1718.38L1350.62,1594.22Z" style="fill-rule:nonzero;"/>
                </g>
                <g transform="matrix(416.667,0,0,416.667,2329.83,2142.18)">
                    <path d="M0.628,-0.271C0.625,-0.234 0.616,-0.199 0.6,-0.166C0.584,-0.133 0.563,-0.105 0.538,-0.081C0.512,-0.057 0.482,-0.038 0.449,-0.024C0.415,-0.01 0.379,-0.003 0.341,-0.003C0.301,-0.003 0.264,-0.011 0.229,-0.025C0.194,-0.041 0.163,-0.061 0.137,-0.087C0.111,-0.113 0.091,-0.143 0.076,-0.179C0.061,-0.214 0.053,-0.251 0.053,-0.29L0.053,-0.748L0.167,-0.748L0.167,-0.29C0.167,-0.266 0.172,-0.244 0.181,-0.223C0.19,-0.202 0.202,-0.183 0.218,-0.168C0.234,-0.152 0.253,-0.14 0.274,-0.131C0.295,-0.122 0.317,-0.117 0.341,-0.117C0.363,-0.117 0.384,-0.121 0.404,-0.129C0.424,-0.137 0.442,-0.148 0.457,-0.162C0.472,-0.175 0.485,-0.191 0.495,-0.21C0.504,-0.229 0.51,-0.249 0.513,-0.271L0.628,-0.271ZM0.514,-0.394L0.514,-0.747L0.628,-0.747L0.628,-0.394L0.514,-0.394Z" style="fill-rule:nonzero;"/>
                </g>
                <g transform="matrix(1,0,0,1,774.829,-767.751)">
                    <path d="M1881.58,2860.76L1832.83,2860.76L1832.83,2598.26L1881.58,2598.26L1881.58,2860.76Z" style="fill-rule:nonzero;"/>
                </g>
                <g transform="matrix(1,0,0,1,748.829,-767.751)">
                    <rect x="1924.08" y="2860.76" width="123.333" height="48.75" style="fill-rule:nonzero;"/>
                </g>
            </g>
            <g id="pdot" transform="matrix(1,0,0,1,11.4918,-692.543)">
                <rect x="449.138" y="2286.64" width="50" height="50"/>
            </g>
        </g>
    </g>
</svg>
